<svg width="122" height="35" viewBox="0 0 122 35" fill="none" xmlns="http://www.w3.org/2000/svg">
<path d="M29.6415 12.3481V21.7743C29.6333 23.4228 28.9582 25.0015 27.763 26.1673C26.5677 27.333 24.9489 27.9917 23.2584 28C21.2668 28 19.6368 27.2564 18.3684 25.7693C17.0857 27.2573 15.4481 28.0009 13.4555 28C11.765 27.9917 10.1462 27.333 8.95094 26.1673C7.75569 25.0015 7.08062 23.4228 7.07245 21.7743V12.3481H10.0599V21.7743C10.0617 22.6519 10.42 23.4931 11.0564 24.1137C11.6929 24.7343 12.5555 25.0837 13.4555 25.0854C13.9003 25.0927 14.3421 25.0125 14.7545 24.8495C15.1668 24.6865 15.5412 24.4441 15.8552 24.1368C16.1768 23.8329 16.4326 23.4692 16.6076 23.0673C16.7825 22.6654 16.8731 22.2333 16.874 21.7967V12.3481H19.8629V21.7967C19.8561 22.2324 19.9409 22.6648 20.1122 23.0673C20.2835 23.4698 20.5375 23.8338 20.8587 24.1368C21.1727 24.4441 21.5471 24.6865 21.9594 24.8495C22.3718 25.0125 22.8136 25.0927 23.2584 25.0854C24.1586 25.0844 25.0217 24.7352 25.6582 24.1145C26.2948 23.4937 26.6529 22.6521 26.654 21.7743V12.3481H29.6415Z" fill="white"/>
<path d="M40.8834 21.6346C41.2038 22.6192 41.8287 23.4831 42.6724 24.1078C43.5383 24.7469 44.5969 25.0884 45.6829 25.0789C46.607 25.0713 47.5185 24.8681 48.3542 24.4833C49.291 24.0704 49.9779 23.5478 50.4147 22.9153L52.882 24.5492C52.1686 25.5795 51.1363 26.411 49.7851 27.0434C48.5111 27.6604 47.1094 27.9853 45.6869 27.9934C44.6292 28.0095 43.5793 27.814 42.6021 27.419C41.6249 27.024 40.741 26.4379 40.0051 25.6968C38.4351 24.1675 37.6505 22.3281 37.6514 20.1787C37.6532 18.1022 38.4999 16.1113 40.0058 14.6431C41.5116 13.1749 43.5535 12.3495 45.6829 12.3481C47.8871 12.3481 49.7738 13.1132 51.343 14.6434C52.103 15.3602 52.7044 16.221 53.1104 17.173C53.5163 18.1249 53.7182 19.1478 53.7036 20.1787C53.7041 20.66 53.6589 21.1404 53.5684 21.6136L40.8834 21.6346ZM45.6829 15.2561C44.5968 15.2459 43.538 15.5875 42.6724 16.2272C41.8244 16.8567 41.199 17.7287 40.8834 18.7214H50.4607C50.1457 17.7288 49.5207 16.8568 48.6731 16.2272C47.8142 15.5894 46.7624 15.2478 45.6829 15.2561Z" fill="white"/>
<path d="M61.4986 27.9934V20.1787C61.4819 19.1471 61.6821 18.1232 62.087 17.1701C62.4918 16.2169 63.0926 15.3548 63.8524 14.6368C65.4224 13.111 67.3092 12.3481 69.5125 12.3481C71.644 12.3481 73.6882 13.1738 75.1955 14.6436C76.7027 16.1133 77.5494 18.1067 77.5494 20.1853V28H74.5606V20.1787C74.5606 18.8759 74.0299 17.6265 73.0852 16.7053C72.1405 15.7842 70.8593 15.2666 69.5233 15.2666C68.1874 15.2666 66.9061 15.7842 65.9614 16.7053C65.0168 17.6265 64.4861 18.8759 64.4861 20.1787V27.9934H61.4986Z" fill="white"/>
<path d="M85.3499 7H88.3373V9.82495H85.3499V7ZM85.3499 12.3416H88.3373V27.9934H85.3499V12.3416Z" fill="white"/>
<path d="M114.928 12.3481L108.136 26.5361C107.686 27.5068 106.909 27.9925 105.804 27.9934C104.7 27.9943 103.915 27.5085 103.451 26.5361L96.6594 12.3481H99.9644L105.421 23.7389C105.454 23.8111 105.508 23.8723 105.576 23.9153C105.644 23.9583 105.724 23.9812 105.805 23.9812C105.886 23.9812 105.966 23.9583 106.034 23.9153C106.102 23.8723 106.156 23.8111 106.189 23.7389L111.646 12.3481H114.928Z" fill="white"/>
</svg>
