<svg width="24" height="24" viewBox="0 0 24 24" fill="none" xmlns="http://www.w3.org/2000/svg">
<path d="M20.0317 4.4554C19.9881 4.35003 19.9237 4.25126 19.8383 4.16542C19.8371 4.16414 19.8358 4.16287 19.8345 4.1616C19.6718 3.99985 19.4476 3.8999 19.2 3.8999H7.20002C6.70297 3.8999 6.30002 4.30285 6.30002 4.7999C6.30002 5.29696 6.70297 5.6999 7.20002 5.6999H17.0272L4.16363 18.5635C3.81216 18.915 3.81216 19.4848 4.16363 19.8363C4.5151 20.1878 5.08495 20.1878 5.43642 19.8363L18.3 6.97269V16.7999C18.3 17.297 18.703 17.6999 19.2 17.6999C19.6971 17.6999 20.1 17.297 20.1 16.7999V4.7999C20.1 4.67787 20.0757 4.56151 20.0317 4.4554Z" fill="#F3F5FA"/>
</svg>
