<svg width="200" height="200" viewBox="0 0 200 200" fill="none" xmlns="http://www.w3.org/2000/svg">
<path d="M160.89 49.44C156.5 40.31 145.53 36.46 136.4 40.86C127.27 45.26 123.42 56.22 127.82 65.35C128.43 66.61 129.17 67.76 130.01 68.81L128.37 72.99C127.94 74.07 129.13 75.08 130.13 74.49L133.72 72.35C138.99 76.09 146.07 76.93 152.31 73.94C161.44 69.55 165.29 58.58 160.89 49.45V49.44Z" fill="#FFE187"/>
<path d="M67.68 102.49C68.75 102.49 69.61 101.63 69.61 100.56C69.61 99.49 68.75 98.63 67.68 98.63C66.61 98.63 65.75 99.49 65.75 100.56C65.75 101.63 66.61 102.49 67.68 102.49Z" fill="#5C8EF2"/>
<path d="M74.44 102.49C75.5059 102.49 76.37 101.626 76.37 100.56C76.37 99.4941 75.5059 98.63 74.44 98.63C73.3741 98.63 72.51 99.4941 72.51 100.56C72.51 101.626 73.3741 102.49 74.44 102.49Z" fill="#5C8EF2"/>
<path d="M75.99 104.83C75.24 104.5 74.36 104.81 74.02 105.57C73.99 105.62 73.38 106.7 71.07 106.7C68.76 106.7 68.13 105.66 68.07 105.56C67.71 104.84 66.83 104.53 66.1 104.87C65.35 105.22 65.02 106.11 65.37 106.86C65.86 107.92 67.61 109.7 71.07 109.7C74.53 109.7 76.27 107.9 76.74 106.84C77.08 106.08 76.74 105.17 75.99 104.84V104.83Z" fill="#5C8EF2"/>
<path d="M143.93 116.77C144.04 116.66 144.14 116.55 144.24 116.44C147.66 112.71 149.51 107.93 149.51 102.89C149.51 102.59 149.5 102.28 149.49 101.97C148.99 90.9 139.6 82.29 128.5 82.78C126.23 82.88 124.03 83.36 121.98 84.17C119.84 82.08 117.41 80.29 114.74 78.88C118.2 75.27 120.33 70.38 120.33 65C120.33 53.92 111.31 44.9 100.22 44.9C89.13 44.9 80.11 53.92 80.11 65C80.11 70.38 82.24 75.27 85.7 78.88C83.03 80.29 80.6 82.08 78.46 84.17C76.17 83.26 73.68 82.76 71.07 82.76C59.99 82.76 50.97 91.78 50.97 102.87C50.97 108.26 53.1 113.15 56.56 116.76C46.67 121.98 39.91 132.38 39.91 144.32V153.03C39.91 154.13 40.81 155.03 41.91 155.03C43.01 155.03 43.91 154.13 43.91 153.03V144.32C43.91 133.32 50.48 123.83 59.9 119.57C63.1 121.72 66.94 122.98 71.07 122.98C75.2 122.98 79.05 121.72 82.25 119.57C91.67 123.84 98.24 133.32 98.24 144.32V153.03C98.24 153.1 98.24 153.17 98.25 153.23C98.31 154.28 99.17 155.1 100.24 155.1C101.31 155.1 102.17 154.28 102.23 153.23C102.24 153.17 102.24 153.1 102.24 153.03V144.32C102.24 133.33 108.8 123.84 118.21 119.58C121.5 121.8 125.36 122.98 129.38 122.98C129.69 122.98 129.99 122.97 130.3 122.96C134.04 122.79 137.57 121.62 140.6 119.58C150.01 123.85 156.56 133.33 156.56 144.32V153.1C156.56 154.21 157.46 155.1 158.56 155.1C159.66 155.1 160.56 154.21 160.56 153.1V144.32C160.56 132.38 153.81 121.99 143.93 116.77ZM84.11 65C84.11 56.12 91.34 48.9 100.22 48.9C109.1 48.9 116.33 56.12 116.33 65C116.33 69.84 114.19 74.19 110.8 77.14C109.45 78.32 107.89 79.28 106.19 79.96C104.34 80.7 102.33 81.11 100.22 81.11C98.11 81.11 96.1 80.7 94.25 79.96C92.55 79.28 90.99 78.32 89.64 77.14C86.25 74.19 84.11 69.84 84.11 65ZM73.05 118.85C72.4 118.94 71.74 118.98 71.07 118.98C70.4 118.98 69.71 118.94 69.05 118.85C67.68 118.68 66.35 118.33 65.11 117.83C63.42 117.15 61.87 116.19 60.51 115.01C57.12 112.06 54.97 107.71 54.97 102.87C54.97 93.99 62.19 86.76 71.07 86.76C72.63 86.76 74.14 86.98 75.57 87.41C76.91 87.79 78.18 88.35 79.36 89.07C84.04 91.88 87.18 97.02 87.18 102.87C87.18 107.71 85.04 112.05 81.65 115.01C80.29 116.19 78.73 117.15 77.03 117.83C75.78 118.33 74.44 118.68 73.05 118.85ZM100.24 133.33C97.53 126.18 92.28 120.29 85.59 116.76C89.06 113.15 91.18 108.26 91.18 102.87C91.18 95.9 87.62 89.75 82.21 86.14C84.24 84.34 86.55 82.83 89.05 81.71C92.24 83.86 96.09 85.11 100.22 85.11C104.35 85.11 108.2 83.86 111.39 81.71C113.89 82.83 116.2 84.34 118.23 86.14C116.9 87.03 115.67 88.09 114.56 89.3C110.94 93.27 109.07 98.4 109.31 103.77C109.53 108.69 111.5 113.26 114.87 116.77C108.19 120.3 102.94 126.19 100.24 133.33ZM131.38 118.85C130.96 118.91 130.54 118.94 130.12 118.96C129.19 119 128.28 118.97 127.38 118.85C126.01 118.68 124.68 118.34 123.41 117.83C121.75 117.17 120.2 116.22 118.82 115.02C118.72 114.93 118.63 114.85 118.53 114.76C115.36 111.85 113.5 107.89 113.31 103.59C113.12 99.29 114.61 95.18 117.51 92C118.58 90.85 119.77 89.87 121.08 89.08C122.26 88.35 123.54 87.8 124.87 87.41C126.1 87.05 127.37 86.84 128.68 86.78C128.93 86.77 129.17 86.76 129.41 86.76C133.69 86.76 137.61 88.45 140.51 91.22C143.42 93.99 145.3 97.84 145.49 102.15C145.69 106.45 144.19 110.56 141.29 113.74C140.88 114.2 140.45 114.62 139.99 115.02C138.62 116.22 137.06 117.17 135.39 117.83C134.11 118.34 132.77 118.68 131.38 118.85Z" fill="#5C8EF2"/>
<path d="M126.01 102.49C127.08 102.49 127.94 101.63 127.94 100.56C127.94 99.49 127.08 98.63 126.01 98.63C124.94 98.63 124.08 99.49 124.08 100.56C124.08 101.63 124.94 102.49 126.01 102.49Z" fill="#5C8EF2"/>
<path d="M132.76 102.49C133.83 102.49 134.69 101.63 134.69 100.56C134.69 99.49 133.83 98.63 132.76 98.63C131.69 98.63 130.83 99.49 130.83 100.56C130.83 101.63 131.69 102.49 132.76 102.49Z" fill="#5C8EF2"/>
<path d="M134.32 104.83C133.57 104.5 132.69 104.81 132.35 105.57C132.32 105.62 131.71 106.7 129.4 106.7C127.09 106.7 126.46 105.66 126.4 105.56C126.04 104.84 125.17 104.53 124.43 104.87C123.68 105.22 123.35 106.11 123.7 106.86C124.19 107.92 125.94 109.7 129.4 109.7C132.86 109.7 134.6 107.9 135.07 106.84C135.41 106.08 135.07 105.17 134.32 104.84V104.83Z" fill="#5C8EF2"/>
<path d="M96.82 64.62C97.89 64.62 98.75 63.76 98.75 62.69C98.75 61.62 97.89 60.76 96.82 60.76C95.75 60.76 94.89 61.62 94.89 62.69C94.89 63.76 95.75 64.62 96.82 64.62Z" fill="#5C8EF2"/>
<path d="M103.58 64.62C104.65 64.62 105.51 63.76 105.51 62.69C105.51 61.62 104.65 60.76 103.58 60.76C102.51 60.76 101.65 61.62 101.65 62.69C101.65 63.76 102.51 64.62 103.58 64.62Z" fill="#5C8EF2"/>
<path d="M100.22 71.8301C103.69 71.8301 105.42 70.0301 105.89 68.9701C106.23 68.2101 105.89 67.3001 105.14 66.9701C104.38 66.6401 103.51 66.9501 103.17 67.7101C103.14 67.7601 102.53 68.8401 100.22 68.8401C97.91 68.8401 97.28 67.8001 97.22 67.7001C96.86 66.9801 95.98 66.6701 95.25 67.0101C94.5 67.3601 94.17 68.2501 94.52 69.0001C95.01 70.0501 96.76 71.8401 100.22 71.8401V71.8301Z" fill="#5C8EF2"/>
</svg>
