<svg width="200" height="200" viewBox="0 0 200 200" fill="none" xmlns="http://www.w3.org/2000/svg">
<path d="M143.34 62.98H56.66C51.4078 62.98 47.15 67.2378 47.15 72.49V114.85C47.15 120.102 51.4078 124.36 56.66 124.36H143.34C148.592 124.36 152.85 120.102 152.85 114.85V72.49C152.85 67.2378 148.592 62.98 143.34 62.98Z" fill="#FFE187"/>
<path d="M145.62 51.85H54.38C44.08 51.85 35.71 60.23 35.71 70.52V116.81C35.71 127.11 44.09 135.48 54.38 135.48H90V141.24H67.47C61.93 141.24 57.31 145.26 56.37 150.53H47.57C46.47 150.53 45.57 151.43 45.57 152.53C45.57 153.63 46.47 154.53 47.57 154.53H152.45C153.55 154.53 154.45 153.63 154.45 152.53C154.45 151.43 153.55 150.53 152.45 150.53H143.65C142.7 145.26 138.09 141.24 132.55 141.24H110.02V135.48H145.64C155.93 135.48 164.31 127.1 164.31 116.81V70.52C164.31 60.22 155.93 51.85 145.64 51.85H145.62ZM139.55 150.54H60.45C61.32 147.49 64.14 145.25 67.46 145.25H132.53C135.86 145.25 138.67 147.49 139.54 150.54H139.55ZM106 141.25H93.99V135.49H106V141.25ZM160.29 116.82C160.29 124.91 153.71 131.49 145.62 131.49H54.38C46.29 131.49 39.71 124.91 39.71 116.82V70.53C39.71 62.44 46.29 55.86 54.38 55.86H145.63C153.72 55.86 160.3 62.44 160.3 70.53V116.82H160.29Z" fill="#5C8EF2"/>
<path d="M89.06 89.18C89.62 88.9 89.94 88.51 90.01 88C90.08 87.5 90.01 87.01 89.8 86.54C89.57 86.02 89.22 85.68 88.78 85.52C88.34 85.36 87.82 85.43 87.23 85.73L74.67 92.31C74.25 92.54 73.9 92.76 73.63 92.96C73.36 93.16 73.15 93.36 73 93.58C72.85 93.79 72.74 94.02 72.68 94.27C72.62 94.52 72.59 94.78 72.59 95.06C72.59 95.62 72.72 96.1 72.98 96.5C73.24 96.9 73.8 97.32 74.67 97.77L87.19 104.35C87.78 104.66 88.3 104.73 88.76 104.56C89.22 104.4 89.56 104.06 89.8 103.54C90.01 103.05 90.08 102.55 90.01 102.05C89.94 101.55 89.62 101.15 89.06 100.87L77.73 95.1V94.89L89.06 89.19V89.18Z" fill="#5C8EF2"/>
<path d="M104.42 82.25C103.96 82.11 103.51 82.11 103.08 82.24C102.61 82.38 102.28 82.73 102.09 83.28L94.45 105.76C94.28 106.27 94.32 106.72 94.57 107.1C94.81 107.47 95.16 107.71 95.61 107.84C95.85 107.91 96.08 107.95 96.32 107.95C96.54 107.95 96.75 107.92 96.96 107.86C97.43 107.72 97.76 107.37 97.95 106.82L105.61 84.34C105.78 83.85 105.73 83.4 105.47 83.01C105.21 82.62 104.87 82.38 104.41 82.26L104.42 82.25Z" fill="#5C8EF2"/>
<path d="M127.03 93.5799C126.88 93.3699 126.67 93.1599 126.4 92.9599C126.13 92.7599 125.78 92.5399 125.36 92.3099L112.8 85.7299C112.21 85.4299 111.7 85.3499 111.25 85.5199C110.81 85.6799 110.46 86.0199 110.23 86.5399C110.02 87.0099 109.95 87.4999 110.02 87.9999C110.09 88.4999 110.41 88.8999 110.97 89.1799L122.3 94.8799V95.0899L110.97 100.86C110.41 101.14 110.09 101.53 110.02 102.04C109.95 102.54 110.02 103.04 110.23 103.53C110.46 104.05 110.81 104.39 111.27 104.55C111.73 104.71 112.25 104.64 112.84 104.34L125.37 97.7599C126.24 97.3099 126.8 96.8899 127.06 96.4899C127.32 96.0899 127.45 95.6099 127.45 95.0499C127.45 94.7699 127.42 94.5099 127.36 94.2599C127.3 94.0099 127.2 93.7799 127.04 93.5699L127.03 93.5799Z" fill="#5C8EF2"/>
</svg>
