<svg width="40" height="40" viewBox="0 0 40 40" fill="none" xmlns="http://www.w3.org/2000/svg">
<path fill-rule="evenodd" clip-rule="evenodd" d="M2.5 12C2.5 6.75329 6.75329 2.5 12 2.5H28C33.2467 2.5 37.5 6.75329 37.5 12V28C37.5 33.2467 33.2467 37.5 28 37.5H12C6.75329 37.5 2.5 33.2467 2.5 28V12ZM12 5.5C8.41015 5.5 5.5 8.41015 5.5 12V28C5.5 31.5899 8.41015 34.5 12 34.5H28C31.5899 34.5 34.5 31.5899 34.5 28V12C34.5 8.41015 31.5899 5.5 28 5.5H12ZM20 15.5C17.5147 15.5 15.5 17.5147 15.5 20C15.5 22.4853 17.5147 24.5 20 24.5C22.4853 24.5 24.5 22.4853 24.5 20C24.5 17.5147 22.4853 15.5 20 15.5ZM12.5 20C12.5 15.8579 15.8579 12.5 20 12.5C24.1421 12.5 27.5 15.8579 27.5 20C27.5 24.1421 24.1421 27.5 20 27.5C15.8579 27.5 12.5 24.1421 12.5 20ZM28.5 14C29.8807 14 31 12.8807 31 11.5C31 10.1193 29.8807 9 28.5 9C27.1193 9 26 10.1193 26 11.5C26 12.8807 27.1193 14 28.5 14Z" fill="#97B5FF"/>
</svg>
