<svg width="200" height="200" viewBox="0 0 200 200" fill="none" xmlns="http://www.w3.org/2000/svg">
<path d="M146.04 60.19H139.66V56.75C139.66 53.05 136.65 50.04 132.95 50.04C129.25 50.04 126.25 53.05 126.25 56.75V60.19H118.57V56.75C118.57 53.05 115.56 50.04 111.87 50.04C108.18 50.04 105.16 53.05 105.16 56.75V60.19H97.49V56.75C97.49 53.05 94.48 50.04 90.78 50.04C87.08 50.04 84.08 53.05 84.08 56.75V60.19H76.4V56.75C76.4 53.05 73.39 50.04 69.7 50.04C66.01 50.04 62.99 53.05 62.99 56.75V60.19H56.61C49.87 60.19 44.38 65.68 44.38 72.42V135.02C44.38 141.76 49.87 147.24 56.61 147.24H146.04C152.78 147.24 158.26 141.76 158.26 135.02V72.42C158.26 65.68 152.78 60.19 146.04 60.19ZM130.25 60.19V56.75C130.25 55.26 131.46 54.04 132.95 54.04C134.44 54.04 135.66 55.26 135.66 56.75V67.64C135.66 69.13 134.44 70.34 132.95 70.34C131.46 70.34 130.25 69.13 130.25 67.64V60.19ZM109.16 60.19V56.75C109.16 55.26 110.37 54.04 111.87 54.04C113.37 54.04 114.57 55.26 114.57 56.75V67.64C114.57 69.13 113.36 70.34 111.87 70.34C110.38 70.34 109.16 69.13 109.16 67.64V60.19ZM88.08 60.19V56.75C88.08 55.26 89.29 54.04 90.78 54.04C92.27 54.04 93.49 55.26 93.49 56.75V67.64C93.49 69.13 92.27 70.34 90.78 70.34C89.29 70.34 88.08 69.13 88.08 67.64V60.19ZM66.99 60.19V56.75C66.99 55.26 68.2 54.04 69.7 54.04C71.2 54.04 72.4 55.26 72.4 56.75V67.64C72.4 69.13 71.19 70.34 69.7 70.34C68.21 70.34 66.99 69.13 66.99 67.64V60.19ZM154.26 135.02C154.26 139.55 150.57 143.24 146.04 143.24H56.61C52.07 143.24 48.38 139.55 48.38 135.02V72.42C48.38 67.88 52.07 64.19 56.61 64.19H62.99V67.64C62.99 71.33 66 74.34 69.7 74.34C73.4 74.34 76.4 71.33 76.4 67.64V64.19H84.08V67.64C84.08 71.33 87.08 74.34 90.78 74.34C94.48 74.34 97.49 71.33 97.49 67.64V64.19H105.16V67.64C105.16 71.33 108.17 74.34 111.87 74.34C115.57 74.34 118.57 71.33 118.57 67.64V64.19H126.25V67.64C126.25 71.33 129.25 74.34 132.95 74.34C136.65 74.34 139.66 71.33 139.66 67.64V64.19H146.04C150.57 64.19 154.26 67.88 154.26 72.42V135.02Z" fill="#5C8EF2"/>
<path d="M141.21 80.37H58.78C57.68 80.37 56.78 81.27 56.78 82.37C56.78 83.47 57.68 84.37 58.78 84.37H141.21C142.31 84.37 143.21 83.47 143.21 82.37C143.21 81.27 142.31 80.37 141.21 80.37Z" fill="#5C8EF2"/>
<path d="M103.94 96.51L107.2 103.12C107.62 103.98 108.44 104.58 109.39 104.71L116.69 105.77C119.08 106.12 120.03 109.05 118.3 110.74L113.02 115.89C112.33 116.56 112.02 117.52 112.18 118.47L113.43 125.74C113.84 128.12 111.34 129.93 109.2 128.81L102.68 125.38C101.83 124.93 100.82 124.93 99.97 125.38L93.45 128.81C91.31 129.93 88.82 128.12 89.22 125.74L90.47 118.47C90.63 117.53 90.32 116.56 89.63 115.89L84.35 110.74C82.62 109.05 83.58 106.12 85.96 105.77L93.26 104.71C94.21 104.57 95.03 103.98 95.45 103.12L98.71 96.51C99.78 94.35 102.87 94.35 103.93 96.51H103.94Z" fill="#FFE187"/>
<path d="M147.24 153.7C158.175 153.7 167.04 144.835 167.04 133.9C167.04 122.965 158.175 114.1 147.24 114.1C136.305 114.1 127.44 122.965 127.44 133.9C127.44 144.835 136.305 153.7 147.24 153.7Z" fill="#FFE187"/>
<path d="M147.24 155.7C135.22 155.7 125.44 145.92 125.44 133.9C125.44 121.88 135.22 112.1 147.24 112.1C159.26 112.1 169.04 121.88 169.04 133.9C169.04 145.92 159.26 155.7 147.24 155.7ZM147.24 116.11C137.43 116.11 129.44 124.09 129.44 133.91C129.44 143.73 137.42 151.71 147.24 151.71C157.06 151.71 165.04 143.73 165.04 133.91C165.04 124.09 157.06 116.11 147.24 116.11Z" fill="#5C8EF2"/>
<path d="M146.15 141.36C145.64 141.36 145.15 141.17 144.78 140.81L138.91 135.27C138.11 134.51 138.07 133.25 138.83 132.44C139.59 131.63 140.85 131.6 141.66 132.36L146.07 136.53L153.21 128.96C153.97 128.16 155.23 128.12 156.04 128.88C156.84 129.64 156.88 130.9 156.12 131.71L147.6 140.73C147.24 141.12 146.73 141.34 146.2 141.36C146.18 141.36 146.16 141.36 146.14 141.36H146.15Z" fill="#5C8EF2"/>
</svg>
