<svg width="40" height="40" viewBox="0 0 40 40" fill="none" xmlns="http://www.w3.org/2000/svg">
<path fill-rule="evenodd" clip-rule="evenodd" d="M20 2.5C10.335 2.5 2.5 10.335 2.5 20C2.5 29.665 10.335 37.5 20 37.5H32C35.0376 37.5 37.5 35.0376 37.5 32V20C37.5 10.335 29.665 2.5 20 2.5ZM5.5 20C5.5 11.9919 11.9919 5.5 20 5.5C28.0081 5.5 34.5 11.9919 34.5 20V32C34.5 32.1201 34.4915 32.2382 34.4752 32.3538L24.5 22.3787V15C24.5 14.1716 23.8284 13.5 23 13.5C22.1716 13.5 21.5 14.1716 21.5 15V19.3787L17.5607 15.4393C16.9749 14.8536 16.0251 14.8536 15.4393 15.4393C14.8536 16.0251 14.8536 16.9749 15.4393 17.5607L24.3787 26.5H20C19.1716 26.5 18.5 27.1716 18.5 28C18.5 28.8284 19.1716 29.5 20 29.5H27.3787L32.3538 34.4752C32.2382 34.4915 32.1201 34.5 32 34.5H20C11.9919 34.5 5.5 28.0081 5.5 20Z" fill="#97B5FF"/>
</svg>
