<svg width="40" height="40" viewBox="0 0 40 40" fill="none" xmlns="http://www.w3.org/2000/svg">
<path fill-rule="evenodd" clip-rule="evenodd" d="M22.2071 7.72598C20.9212 6.68118 19.0788 6.68118 17.7929 7.72598L6.79293 16.6635C5.97494 17.3281 5.5 18.3259 5.5 19.3799V31C5.5 32.933 7.067 34.5 9 34.5H13.5V25C13.5 21.4102 16.4101 18.5 20 18.5C23.5899 18.5 26.5 21.4102 26.5 25V34.5H31C32.933 34.5 34.5 32.933 34.5 31V19.3799C34.5 18.3259 34.0251 17.3281 33.2071 16.6635L22.2071 7.72598ZM23.5 34.5V25C23.5 23.067 21.933 21.5 20 21.5C18.067 21.5 16.5 23.067 16.5 25V34.5H23.5ZM15.9011 5.39764C18.2893 3.4573 21.7107 3.4573 24.0989 5.39764L35.0989 14.3351C36.618 15.5694 37.5 17.4225 37.5 19.3799V31C37.5 34.5899 34.5899 37.5 31 37.5H9C5.41015 37.5 2.5 34.5899 2.5 31V19.3799C2.5 17.4225 3.38203 15.5694 4.90115 14.3351L15.9011 5.39764Z" fill="#97B5FF"/>
</svg>
