<svg width="40" height="40" viewBox="0 0 40 40" fill="none" xmlns="http://www.w3.org/2000/svg">
<path fill-rule="evenodd" clip-rule="evenodd" d="M12 2.5C6.75329 2.5 2.5 6.75329 2.5 12V28C2.5 33.2467 6.75329 37.5 12 37.5H28C33.2467 37.5 37.5 33.2467 37.5 28V12C37.5 6.75329 33.2467 2.5 28 2.5H12ZM5.5 12C5.5 8.41015 8.41015 5.5 12 5.5H28C31.5899 5.5 34.5 8.41015 34.5 12V28C34.5 31.5899 31.5899 34.5 28 34.5H12C8.41015 34.5 5.5 31.5899 5.5 28V12ZM15.0607 12.9394C14.6317 12.5104 13.9865 12.382 13.426 12.6142C12.8655 12.8464 12.5 13.3933 12.5 14V26C12.5 26.8284 13.1716 27.5 14 27.5C14.8284 27.5 15.5 26.8284 15.5 26V17.6213L24.9393 27.0607C25.3683 27.4897 26.0135 27.618 26.574 27.3858C27.1345 27.1537 27.5 26.6067 27.5 26V14C27.5 13.1716 26.8284 12.5 26 12.5C25.1716 12.5 24.5 13.1716 24.5 14V22.3787L15.0607 12.9394Z" fill="#97B5FF"/>
</svg>
