<svg width="32" height="32" viewBox="0 0 32 32" fill="none" xmlns="http://www.w3.org/2000/svg">
<path d="M16.0001 5.19995C16.3529 5.19995 16.6702 5.35228 16.8898 5.59476L24.888 14.3927C25.3338 14.8831 25.2977 15.6421 24.8073 16.0879C24.3169 16.5337 23.5579 16.4975 23.1121 16.0072L17.2 9.50387V25.6C17.2 26.2627 16.6628 26.8 16 26.8C15.3373 26.8 14.8 26.2627 14.8 25.6V9.50389L8.88799 16.0072C8.44218 16.4975 7.68324 16.5337 7.19285 16.0879C6.70246 15.6421 6.66632 14.8831 7.11213 14.3927L15.1079 5.59742C15.3275 5.35339 15.6459 5.19995 16.0001 5.19995C16.0001 5.19995 16.0001 5.19995 16.0001 5.19995Z" fill="white"/>
</svg>
