<svg width="200" height="200" viewBox="0 0 200 200" fill="none" xmlns="http://www.w3.org/2000/svg">
<mask id="mask0_932_645" style="mask-type:luminance" maskUnits="userSpaceOnUse" x="45" y="65" width="110" height="30">
<path d="M154.95 76.1V90.16C154.95 92.72 152.92 94.81 150.38 94.89C150.32 94.9 150.27 94.9 150.21 94.9H110.25V67.14H89.74V94.9H49.79C49.73 94.9 49.68 94.9 49.62 94.89C47.08 94.81 45.04 92.72 45.04 90.16V76.1C45.04 70.05 49.95 65.14 56.01 65.14H143.99C150.04 65.14 154.95 70.05 154.95 76.1Z" fill="white"/>
</mask>
<g mask="url(#mask0_932_645)">
<mask id="mask1_932_645" style="mask-type:luminance" maskUnits="userSpaceOnUse" x="145" y="37" width="21" height="31">
<path d="M165.49 37.66H145.49V67.66H165.49V37.66Z" fill="white"/>
</mask>
<g mask="url(#mask1_932_645)">
<path d="M145.49 73.83C148.898 73.83 151.66 71.0676 151.66 67.66C151.66 64.2524 148.898 61.49 145.49 61.49C142.082 61.49 139.32 64.2524 139.32 67.66C139.32 71.0676 142.082 73.83 145.49 73.83Z" fill="#FFE187"/>
</g>
<mask id="mask2_932_645" style="mask-type:luminance" maskUnits="userSpaceOnUse" x="145" y="67" width="21" height="31">
<path d="M165.49 67.66H145.49V97.66H165.49V67.66Z" fill="white"/>
</mask>
<g mask="url(#mask2_932_645)">
<path d="M145.49 103.83C148.898 103.83 151.66 101.068 151.66 97.66C151.66 94.2524 148.898 91.49 145.49 91.49C142.082 91.49 139.32 94.2524 139.32 97.66C139.32 101.068 142.082 103.83 145.49 103.83Z" fill="#FFE187"/>
<path d="M155.49 88.83C158.898 88.83 161.66 86.0676 161.66 82.66C161.66 79.2524 158.898 76.49 155.49 76.49C152.082 76.49 149.32 79.2524 149.32 82.66C149.32 86.0676 152.082 88.83 155.49 88.83Z" fill="#FFE187"/>
<path d="M145.49 73.83C148.898 73.83 151.66 71.0676 151.66 67.66C151.66 64.2524 148.898 61.49 145.49 61.49C142.082 61.49 139.32 64.2524 139.32 67.66C139.32 71.0676 142.082 73.83 145.49 73.83Z" fill="#FFE187"/>
</g>
<mask id="mask3_932_645" style="mask-type:luminance" maskUnits="userSpaceOnUse" x="125" y="37" width="21" height="31">
<path d="M145.49 37.66H125.49V67.66H145.49V37.66Z" fill="white"/>
</mask>
<g mask="url(#mask3_932_645)">
<path d="M145.49 73.83C148.898 73.83 151.66 71.0676 151.66 67.66C151.66 64.2524 148.898 61.49 145.49 61.49C142.082 61.49 139.32 64.2524 139.32 67.66C139.32 71.0676 142.082 73.83 145.49 73.83Z" fill="#FFE187"/>
<path d="M125.49 73.83C128.898 73.83 131.66 71.0676 131.66 67.66C131.66 64.2524 128.898 61.49 125.49 61.49C122.082 61.49 119.32 64.2524 119.32 67.66C119.32 71.0676 122.082 73.83 125.49 73.83Z" fill="#FFE187"/>
</g>
<mask id="mask4_932_645" style="mask-type:luminance" maskUnits="userSpaceOnUse" x="125" y="67" width="21" height="31">
<path d="M145.49 67.66H125.49V97.66H145.49V67.66Z" fill="white"/>
</mask>
<g mask="url(#mask4_932_645)">
<path d="M145.49 103.83C148.898 103.83 151.66 101.068 151.66 97.66C151.66 94.2524 148.898 91.49 145.49 91.49C142.082 91.49 139.32 94.2524 139.32 97.66C139.32 101.068 142.082 103.83 145.49 103.83Z" fill="#FFE187"/>
<path d="M125.49 103.83C128.898 103.83 131.66 101.068 131.66 97.66C131.66 94.2524 128.898 91.49 125.49 91.49C122.082 91.49 119.32 94.2524 119.32 97.66C119.32 101.068 122.082 103.83 125.49 103.83Z" fill="#FFE187"/>
<path d="M135.49 88.83C138.898 88.83 141.66 86.0676 141.66 82.66C141.66 79.2524 138.898 76.49 135.49 76.49C132.082 76.49 129.32 79.2524 129.32 82.66C129.32 86.0676 132.082 88.83 135.49 88.83Z" fill="#FFE187"/>
<path d="M145.49 73.83C148.898 73.83 151.66 71.0676 151.66 67.66C151.66 64.2524 148.898 61.49 145.49 61.49C142.082 61.49 139.32 64.2524 139.32 67.66C139.32 71.0676 142.082 73.83 145.49 73.83Z" fill="#FFE187"/>
<path d="M125.49 73.83C128.898 73.83 131.66 71.0676 131.66 67.66C131.66 64.2524 128.898 61.49 125.49 61.49C122.082 61.49 119.32 64.2524 119.32 67.66C119.32 71.0676 122.082 73.83 125.49 73.83Z" fill="#FFE187"/>
</g>
<mask id="mask5_932_645" style="mask-type:luminance" maskUnits="userSpaceOnUse" x="105" y="37" width="21" height="31">
<path d="M125.49 37.66H105.49V67.66H125.49V37.66Z" fill="white"/>
</mask>
<g mask="url(#mask5_932_645)">
<path d="M125.49 73.83C128.898 73.83 131.66 71.0676 131.66 67.66C131.66 64.2524 128.898 61.49 125.49 61.49C122.082 61.49 119.32 64.2524 119.32 67.66C119.32 71.0676 122.082 73.83 125.49 73.83Z" fill="#FFE187"/>
<path d="M105.49 73.83C108.898 73.83 111.66 71.0676 111.66 67.66C111.66 64.2524 108.898 61.49 105.49 61.49C102.082 61.49 99.32 64.2524 99.32 67.66C99.32 71.0676 102.082 73.83 105.49 73.83Z" fill="#FFE187"/>
</g>
<mask id="mask6_932_645" style="mask-type:luminance" maskUnits="userSpaceOnUse" x="105" y="67" width="21" height="31">
<path d="M125.49 67.66H105.49V97.66H125.49V67.66Z" fill="white"/>
</mask>
<g mask="url(#mask6_932_645)">
<path d="M125.49 103.83C128.898 103.83 131.66 101.068 131.66 97.66C131.66 94.2524 128.898 91.49 125.49 91.49C122.082 91.49 119.32 94.2524 119.32 97.66C119.32 101.068 122.082 103.83 125.49 103.83Z" fill="#FFE187"/>
<path d="M105.49 103.83C108.898 103.83 111.66 101.068 111.66 97.66C111.66 94.2524 108.898 91.49 105.49 91.49C102.082 91.49 99.32 94.2524 99.32 97.66C99.32 101.068 102.082 103.83 105.49 103.83Z" fill="#FFE187"/>
<path d="M115.49 88.83C118.898 88.83 121.66 86.0676 121.66 82.66C121.66 79.2524 118.898 76.49 115.49 76.49C112.082 76.49 109.32 79.2524 109.32 82.66C109.32 86.0676 112.082 88.83 115.49 88.83Z" fill="#FFE187"/>
<path d="M125.49 73.83C128.898 73.83 131.66 71.0676 131.66 67.66C131.66 64.2524 128.898 61.49 125.49 61.49C122.082 61.49 119.32 64.2524 119.32 67.66C119.32 71.0676 122.082 73.83 125.49 73.83Z" fill="#FFE187"/>
<path d="M105.49 73.83C108.898 73.83 111.66 71.0676 111.66 67.66C111.66 64.2524 108.898 61.49 105.49 61.49C102.082 61.49 99.32 64.2524 99.32 67.66C99.32 71.0676 102.082 73.83 105.49 73.83Z" fill="#FFE187"/>
</g>
<mask id="mask7_932_645" style="mask-type:luminance" maskUnits="userSpaceOnUse" x="85" y="37" width="21" height="31">
<path d="M105.49 37.66H85.49V67.66H105.49V37.66Z" fill="white"/>
</mask>
<g mask="url(#mask7_932_645)">
<path d="M105.49 73.83C108.898 73.83 111.66 71.0676 111.66 67.66C111.66 64.2524 108.898 61.49 105.49 61.49C102.082 61.49 99.32 64.2524 99.32 67.66C99.32 71.0676 102.082 73.83 105.49 73.83Z" fill="#FFE187"/>
<path d="M85.49 73.83C88.8976 73.83 91.66 71.0676 91.66 67.66C91.66 64.2524 88.8976 61.49 85.49 61.49C82.0824 61.49 79.32 64.2524 79.32 67.66C79.32 71.0676 82.0824 73.83 85.49 73.83Z" fill="#FFE187"/>
</g>
<mask id="mask8_932_645" style="mask-type:luminance" maskUnits="userSpaceOnUse" x="85" y="67" width="21" height="31">
<path d="M105.49 67.66H85.49V97.66H105.49V67.66Z" fill="white"/>
</mask>
<g mask="url(#mask8_932_645)">
<path d="M105.49 103.83C108.898 103.83 111.66 101.068 111.66 97.66C111.66 94.2524 108.898 91.49 105.49 91.49C102.082 91.49 99.32 94.2524 99.32 97.66C99.32 101.068 102.082 103.83 105.49 103.83Z" fill="#FFE187"/>
<path d="M85.49 103.83C88.8976 103.83 91.66 101.068 91.66 97.66C91.66 94.2524 88.8976 91.49 85.49 91.49C82.0824 91.49 79.32 94.2524 79.32 97.66C79.32 101.068 82.0824 103.83 85.49 103.83Z" fill="#FFE187"/>
<path d="M95.49 88.83C98.8976 88.83 101.66 86.0676 101.66 82.66C101.66 79.2524 98.8976 76.49 95.49 76.49C92.0824 76.49 89.32 79.2524 89.32 82.66C89.32 86.0676 92.0824 88.83 95.49 88.83Z" fill="#FFE187"/>
<path d="M105.49 73.83C108.898 73.83 111.66 71.0676 111.66 67.66C111.66 64.2524 108.898 61.49 105.49 61.49C102.082 61.49 99.32 64.2524 99.32 67.66C99.32 71.0676 102.082 73.83 105.49 73.83Z" fill="#FFE187"/>
<path d="M85.49 73.83C88.8976 73.83 91.66 71.0676 91.66 67.66C91.66 64.2524 88.8976 61.49 85.49 61.49C82.0824 61.49 79.32 64.2524 79.32 67.66C79.32 71.0676 82.0824 73.83 85.49 73.83Z" fill="#FFE187"/>
</g>
<mask id="mask9_932_645" style="mask-type:luminance" maskUnits="userSpaceOnUse" x="65" y="37" width="21" height="31">
<path d="M85.49 37.66H65.49V67.66H85.49V37.66Z" fill="white"/>
</mask>
<g mask="url(#mask9_932_645)">
<path d="M85.49 73.83C88.8976 73.83 91.66 71.0676 91.66 67.66C91.66 64.2524 88.8976 61.49 85.49 61.49C82.0824 61.49 79.32 64.2524 79.32 67.66C79.32 71.0676 82.0824 73.83 85.49 73.83Z" fill="#FFE187"/>
<path d="M65.49 73.83C68.8976 73.83 71.66 71.0676 71.66 67.66C71.66 64.2524 68.8976 61.49 65.49 61.49C62.0824 61.49 59.32 64.2524 59.32 67.66C59.32 71.0676 62.0824 73.83 65.49 73.83Z" fill="#FFE187"/>
</g>
<mask id="mask10_932_645" style="mask-type:luminance" maskUnits="userSpaceOnUse" x="65" y="67" width="21" height="31">
<path d="M85.49 67.66H65.49V97.66H85.49V67.66Z" fill="white"/>
</mask>
<g mask="url(#mask10_932_645)">
<path d="M85.49 103.83C88.8976 103.83 91.66 101.068 91.66 97.66C91.66 94.2524 88.8976 91.49 85.49 91.49C82.0824 91.49 79.32 94.2524 79.32 97.66C79.32 101.068 82.0824 103.83 85.49 103.83Z" fill="#FFE187"/>
<path d="M65.49 103.83C68.8976 103.83 71.66 101.068 71.66 97.66C71.66 94.2524 68.8976 91.49 65.49 91.49C62.0824 91.49 59.32 94.2524 59.32 97.66C59.32 101.068 62.0824 103.83 65.49 103.83Z" fill="#FFE187"/>
<path d="M75.49 88.83C78.8976 88.83 81.66 86.0676 81.66 82.66C81.66 79.2524 78.8976 76.49 75.49 76.49C72.0824 76.49 69.32 79.2524 69.32 82.66C69.32 86.0676 72.0824 88.83 75.49 88.83Z" fill="#FFE187"/>
<path d="M85.49 73.83C88.8976 73.83 91.66 71.0676 91.66 67.66C91.66 64.2524 88.8976 61.49 85.49 61.49C82.0824 61.49 79.32 64.2524 79.32 67.66C79.32 71.0676 82.0824 73.83 85.49 73.83Z" fill="#FFE187"/>
<path d="M65.49 73.83C68.8976 73.83 71.66 71.0676 71.66 67.66C71.66 64.2524 68.8976 61.49 65.49 61.49C62.0824 61.49 59.32 64.2524 59.32 67.66C59.32 71.0676 62.0824 73.83 65.49 73.83Z" fill="#FFE187"/>
</g>
<mask id="mask11_932_645" style="mask-type:luminance" maskUnits="userSpaceOnUse" x="45" y="37" width="21" height="31">
<path d="M65.49 37.66H45.49V67.66H65.49V37.66Z" fill="white"/>
</mask>
<g mask="url(#mask11_932_645)">
<path d="M65.49 73.83C68.8976 73.83 71.66 71.0676 71.66 67.66C71.66 64.2524 68.8976 61.49 65.49 61.49C62.0824 61.49 59.32 64.2524 59.32 67.66C59.32 71.0676 62.0824 73.83 65.49 73.83Z" fill="#FFE187"/>
<path d="M45.49 73.83C48.8976 73.83 51.66 71.0676 51.66 67.66C51.66 64.2524 48.8976 61.49 45.49 61.49C42.0824 61.49 39.32 64.2524 39.32 67.66C39.32 71.0676 42.0824 73.83 45.49 73.83Z" fill="#FFE187"/>
</g>
<mask id="mask12_932_645" style="mask-type:luminance" maskUnits="userSpaceOnUse" x="45" y="67" width="21" height="31">
<path d="M65.49 67.66H45.49V97.66H65.49V67.66Z" fill="white"/>
</mask>
<g mask="url(#mask12_932_645)">
<path d="M65.49 103.83C68.8976 103.83 71.66 101.068 71.66 97.66C71.66 94.2524 68.8976 91.49 65.49 91.49C62.0824 91.49 59.32 94.2524 59.32 97.66C59.32 101.068 62.0824 103.83 65.49 103.83Z" fill="#FFE187"/>
<path d="M45.49 103.83C48.8976 103.83 51.66 101.068 51.66 97.66C51.66 94.2524 48.8976 91.49 45.49 91.49C42.0824 91.49 39.32 94.2524 39.32 97.66C39.32 101.068 42.0824 103.83 45.49 103.83Z" fill="#FFE187"/>
<path d="M55.49 88.83C58.8976 88.83 61.66 86.0676 61.66 82.66C61.66 79.2524 58.8976 76.49 55.49 76.49C52.0824 76.49 49.32 79.2524 49.32 82.66C49.32 86.0676 52.0824 88.83 55.49 88.83Z" fill="#FFE187"/>
<path d="M65.49 73.83C68.8976 73.83 71.66 71.0676 71.66 67.66C71.66 64.2524 68.8976 61.49 65.49 61.49C62.0824 61.49 59.32 64.2524 59.32 67.66C59.32 71.0676 62.0824 73.83 65.49 73.83Z" fill="#FFE187"/>
<path d="M45.49 73.83C48.8976 73.83 51.66 71.0676 51.66 67.66C51.66 64.2524 48.8976 61.49 45.49 61.49C42.0824 61.49 39.32 64.2524 39.32 67.66C39.32 71.0676 42.0824 73.83 45.49 73.83Z" fill="#FFE187"/>
</g>
<mask id="mask13_932_645" style="mask-type:luminance" maskUnits="userSpaceOnUse" x="25" y="37" width="21" height="31">
<path d="M45.49 37.66H25.49V67.66H45.49V37.66Z" fill="white"/>
</mask>
<g mask="url(#mask13_932_645)">
<path d="M45.49 73.83C48.8976 73.83 51.66 71.0676 51.66 67.66C51.66 64.2524 48.8976 61.49 45.49 61.49C42.0824 61.49 39.32 64.2524 39.32 67.66C39.32 71.0676 42.0824 73.83 45.49 73.83Z" fill="#FFE187"/>
</g>
<mask id="mask14_932_645" style="mask-type:luminance" maskUnits="userSpaceOnUse" x="25" y="67" width="21" height="31">
<path d="M45.49 67.66H25.49V97.66H45.49V67.66Z" fill="white"/>
</mask>
<g mask="url(#mask14_932_645)">
<path d="M45.49 103.83C48.8976 103.83 51.66 101.068 51.66 97.66C51.66 94.2524 48.8976 91.49 45.49 91.49C42.0824 91.49 39.32 94.2524 39.32 97.66C39.32 101.068 42.0824 103.83 45.49 103.83Z" fill="#FFE187"/>
<path d="M45.49 73.83C48.8976 73.83 51.66 71.0676 51.66 67.66C51.66 64.2524 48.8976 61.49 45.49 61.49C42.0824 61.49 39.32 64.2524 39.32 67.66C39.32 71.0676 42.0824 73.83 45.49 73.83Z" fill="#FFE187"/>
</g>
</g>
<mask id="mask15_932_645" style="mask-type:luminance" maskUnits="userSpaceOnUse" x="51" y="94" width="98" height="55">
<path d="M148.38 94.9V138.65C148.38 144 144.04 148.33 138.69 148.33H61.3C55.95 148.33 51.62 144 51.62 138.65V94.9H89.74V146.33H110.25V94.9H148.38Z" fill="white"/>
</mask>
<g mask="url(#mask15_932_645)">
<mask id="mask16_932_645" style="mask-type:luminance" maskUnits="userSpaceOnUse" x="145" y="67" width="21" height="31">
<path d="M165.49 67.66H145.49V97.66H165.49V67.66Z" fill="white"/>
</mask>
<g mask="url(#mask16_932_645)">
<path d="M145.49 103.83C148.898 103.83 151.66 101.068 151.66 97.66C151.66 94.2524 148.898 91.49 145.49 91.49C142.082 91.49 139.32 94.2524 139.32 97.66C139.32 101.068 142.082 103.83 145.49 103.83Z" fill="#FFE187"/>
</g>
<mask id="mask17_932_645" style="mask-type:luminance" maskUnits="userSpaceOnUse" x="145" y="97" width="21" height="31">
<path d="M165.49 97.66H145.49V127.66H165.49V97.66Z" fill="white"/>
</mask>
<g mask="url(#mask17_932_645)">
<path d="M145.49 133.83C148.898 133.83 151.66 131.068 151.66 127.66C151.66 124.252 148.898 121.49 145.49 121.49C142.082 121.49 139.32 124.252 139.32 127.66C139.32 131.068 142.082 133.83 145.49 133.83Z" fill="#FFE187"/>
<path d="M145.49 103.83C148.898 103.83 151.66 101.068 151.66 97.66C151.66 94.2524 148.898 91.49 145.49 91.49C142.082 91.49 139.32 94.2524 139.32 97.66C139.32 101.068 142.082 103.83 145.49 103.83Z" fill="#FFE187"/>
</g>
<mask id="mask18_932_645" style="mask-type:luminance" maskUnits="userSpaceOnUse" x="145" y="127" width="21" height="31">
<path d="M165.49 127.66H145.49V157.66H165.49V127.66Z" fill="white"/>
</mask>
<g mask="url(#mask18_932_645)">
<path d="M145.49 133.83C148.898 133.83 151.66 131.068 151.66 127.66C151.66 124.252 148.898 121.49 145.49 121.49C142.082 121.49 139.32 124.252 139.32 127.66C139.32 131.068 142.082 133.83 145.49 133.83Z" fill="#FFE187"/>
</g>
<mask id="mask19_932_645" style="mask-type:luminance" maskUnits="userSpaceOnUse" x="125" y="67" width="21" height="31">
<path d="M145.49 67.66H125.49V97.66H145.49V67.66Z" fill="white"/>
</mask>
<g mask="url(#mask19_932_645)">
<path d="M145.49 103.83C148.898 103.83 151.66 101.068 151.66 97.66C151.66 94.2524 148.898 91.49 145.49 91.49C142.082 91.49 139.32 94.2524 139.32 97.66C139.32 101.068 142.082 103.83 145.49 103.83Z" fill="#FFE187"/>
<path d="M125.49 103.83C128.898 103.83 131.66 101.068 131.66 97.66C131.66 94.2524 128.898 91.49 125.49 91.49C122.082 91.49 119.32 94.2524 119.32 97.66C119.32 101.068 122.082 103.83 125.49 103.83Z" fill="#FFE187"/>
</g>
<mask id="mask20_932_645" style="mask-type:luminance" maskUnits="userSpaceOnUse" x="125" y="97" width="21" height="31">
<path d="M145.49 97.66H125.49V127.66H145.49V97.66Z" fill="white"/>
</mask>
<g mask="url(#mask20_932_645)">
<path d="M145.49 133.83C148.898 133.83 151.66 131.068 151.66 127.66C151.66 124.252 148.898 121.49 145.49 121.49C142.082 121.49 139.32 124.252 139.32 127.66C139.32 131.068 142.082 133.83 145.49 133.83Z" fill="#FFE187"/>
<path d="M125.49 133.83C128.898 133.83 131.66 131.068 131.66 127.66C131.66 124.252 128.898 121.49 125.49 121.49C122.082 121.49 119.32 124.252 119.32 127.66C119.32 131.068 122.082 133.83 125.49 133.83Z" fill="#FFE187"/>
<path d="M135.49 118.83C138.898 118.83 141.66 116.068 141.66 112.66C141.66 109.252 138.898 106.49 135.49 106.49C132.082 106.49 129.32 109.252 129.32 112.66C129.32 116.068 132.082 118.83 135.49 118.83Z" fill="#FFE187"/>
<path d="M145.49 103.83C148.898 103.83 151.66 101.068 151.66 97.66C151.66 94.2524 148.898 91.49 145.49 91.49C142.082 91.49 139.32 94.2524 139.32 97.66C139.32 101.068 142.082 103.83 145.49 103.83Z" fill="#FFE187"/>
<path d="M125.49 103.83C128.898 103.83 131.66 101.068 131.66 97.66C131.66 94.2524 128.898 91.49 125.49 91.49C122.082 91.49 119.32 94.2524 119.32 97.66C119.32 101.068 122.082 103.83 125.49 103.83Z" fill="#FFE187"/>
</g>
<mask id="mask21_932_645" style="mask-type:luminance" maskUnits="userSpaceOnUse" x="125" y="127" width="21" height="31">
<path d="M145.49 127.66H125.49V157.66H145.49V127.66Z" fill="white"/>
</mask>
<g mask="url(#mask21_932_645)">
<path d="M135.49 148.83C138.898 148.83 141.66 146.068 141.66 142.66C141.66 139.252 138.898 136.49 135.49 136.49C132.082 136.49 129.32 139.252 129.32 142.66C129.32 146.068 132.082 148.83 135.49 148.83Z" fill="#FFE187"/>
<path d="M145.49 133.83C148.898 133.83 151.66 131.068 151.66 127.66C151.66 124.252 148.898 121.49 145.49 121.49C142.082 121.49 139.32 124.252 139.32 127.66C139.32 131.068 142.082 133.83 145.49 133.83Z" fill="#FFE187"/>
<path d="M125.49 133.83C128.898 133.83 131.66 131.068 131.66 127.66C131.66 124.252 128.898 121.49 125.49 121.49C122.082 121.49 119.32 124.252 119.32 127.66C119.32 131.068 122.082 133.83 125.49 133.83Z" fill="#FFE187"/>
</g>
<mask id="mask22_932_645" style="mask-type:luminance" maskUnits="userSpaceOnUse" x="105" y="67" width="21" height="31">
<path d="M125.49 67.66H105.49V97.66H125.49V67.66Z" fill="white"/>
</mask>
<g mask="url(#mask22_932_645)">
<path d="M125.49 103.83C128.898 103.83 131.66 101.068 131.66 97.66C131.66 94.2524 128.898 91.49 125.49 91.49C122.082 91.49 119.32 94.2524 119.32 97.66C119.32 101.068 122.082 103.83 125.49 103.83Z" fill="#FFE187"/>
<path d="M105.49 103.83C108.898 103.83 111.66 101.068 111.66 97.66C111.66 94.2524 108.898 91.49 105.49 91.49C102.082 91.49 99.32 94.2524 99.32 97.66C99.32 101.068 102.082 103.83 105.49 103.83Z" fill="#FFE187"/>
</g>
<mask id="mask23_932_645" style="mask-type:luminance" maskUnits="userSpaceOnUse" x="105" y="97" width="21" height="31">
<path d="M125.49 97.66H105.49V127.66H125.49V97.66Z" fill="white"/>
</mask>
<g mask="url(#mask23_932_645)">
<path d="M125.49 133.83C128.898 133.83 131.66 131.068 131.66 127.66C131.66 124.252 128.898 121.49 125.49 121.49C122.082 121.49 119.32 124.252 119.32 127.66C119.32 131.068 122.082 133.83 125.49 133.83Z" fill="#FFE187"/>
<path d="M105.49 133.83C108.898 133.83 111.66 131.068 111.66 127.66C111.66 124.252 108.898 121.49 105.49 121.49C102.082 121.49 99.32 124.252 99.32 127.66C99.32 131.068 102.082 133.83 105.49 133.83Z" fill="#FFE187"/>
<path d="M115.49 118.83C118.898 118.83 121.66 116.068 121.66 112.66C121.66 109.252 118.898 106.49 115.49 106.49C112.082 106.49 109.32 109.252 109.32 112.66C109.32 116.068 112.082 118.83 115.49 118.83Z" fill="#FFE187"/>
<path d="M125.49 103.83C128.898 103.83 131.66 101.068 131.66 97.66C131.66 94.2524 128.898 91.49 125.49 91.49C122.082 91.49 119.32 94.2524 119.32 97.66C119.32 101.068 122.082 103.83 125.49 103.83Z" fill="#FFE187"/>
<path d="M105.49 103.83C108.898 103.83 111.66 101.068 111.66 97.66C111.66 94.2524 108.898 91.49 105.49 91.49C102.082 91.49 99.32 94.2524 99.32 97.66C99.32 101.068 102.082 103.83 105.49 103.83Z" fill="#FFE187"/>
</g>
<mask id="mask24_932_645" style="mask-type:luminance" maskUnits="userSpaceOnUse" x="105" y="127" width="21" height="31">
<path d="M125.49 127.66H105.49V157.66H125.49V127.66Z" fill="white"/>
</mask>
<g mask="url(#mask24_932_645)">
<path d="M115.49 148.83C118.898 148.83 121.66 146.068 121.66 142.66C121.66 139.252 118.898 136.49 115.49 136.49C112.082 136.49 109.32 139.252 109.32 142.66C109.32 146.068 112.082 148.83 115.49 148.83Z" fill="#FFE187"/>
<path d="M125.49 133.83C128.898 133.83 131.66 131.068 131.66 127.66C131.66 124.252 128.898 121.49 125.49 121.49C122.082 121.49 119.32 124.252 119.32 127.66C119.32 131.068 122.082 133.83 125.49 133.83Z" fill="#FFE187"/>
<path d="M105.49 133.83C108.898 133.83 111.66 131.068 111.66 127.66C111.66 124.252 108.898 121.49 105.49 121.49C102.082 121.49 99.32 124.252 99.32 127.66C99.32 131.068 102.082 133.83 105.49 133.83Z" fill="#FFE187"/>
</g>
<mask id="mask25_932_645" style="mask-type:luminance" maskUnits="userSpaceOnUse" x="85" y="67" width="21" height="31">
<path d="M105.49 67.66H85.49V97.66H105.49V67.66Z" fill="white"/>
</mask>
<g mask="url(#mask25_932_645)">
<path d="M105.49 103.83C108.898 103.83 111.66 101.068 111.66 97.66C111.66 94.2524 108.898 91.49 105.49 91.49C102.082 91.49 99.32 94.2524 99.32 97.66C99.32 101.068 102.082 103.83 105.49 103.83Z" fill="#FFE187"/>
<path d="M85.49 103.83C88.8976 103.83 91.66 101.068 91.66 97.66C91.66 94.2524 88.8976 91.49 85.49 91.49C82.0824 91.49 79.32 94.2524 79.32 97.66C79.32 101.068 82.0824 103.83 85.49 103.83Z" fill="#FFE187"/>
</g>
<mask id="mask26_932_645" style="mask-type:luminance" maskUnits="userSpaceOnUse" x="85" y="97" width="21" height="31">
<path d="M105.49 97.66H85.49V127.66H105.49V97.66Z" fill="white"/>
</mask>
<g mask="url(#mask26_932_645)">
<path d="M105.49 133.83C108.898 133.83 111.66 131.068 111.66 127.66C111.66 124.252 108.898 121.49 105.49 121.49C102.082 121.49 99.32 124.252 99.32 127.66C99.32 131.068 102.082 133.83 105.49 133.83Z" fill="#FFE187"/>
<path d="M85.49 133.83C88.8976 133.83 91.66 131.068 91.66 127.66C91.66 124.252 88.8976 121.49 85.49 121.49C82.0824 121.49 79.32 124.252 79.32 127.66C79.32 131.068 82.0824 133.83 85.49 133.83Z" fill="#FFE187"/>
<path d="M95.49 118.83C98.8976 118.83 101.66 116.068 101.66 112.66C101.66 109.252 98.8976 106.49 95.49 106.49C92.0824 106.49 89.32 109.252 89.32 112.66C89.32 116.068 92.0824 118.83 95.49 118.83Z" fill="#FFE187"/>
<path d="M105.49 103.83C108.898 103.83 111.66 101.068 111.66 97.66C111.66 94.2524 108.898 91.49 105.49 91.49C102.082 91.49 99.32 94.2524 99.32 97.66C99.32 101.068 102.082 103.83 105.49 103.83Z" fill="#FFE187"/>
<path d="M85.49 103.83C88.8976 103.83 91.66 101.068 91.66 97.66C91.66 94.2524 88.8976 91.49 85.49 91.49C82.0824 91.49 79.32 94.2524 79.32 97.66C79.32 101.068 82.0824 103.83 85.49 103.83Z" fill="#FFE187"/>
</g>
<mask id="mask27_932_645" style="mask-type:luminance" maskUnits="userSpaceOnUse" x="85" y="127" width="21" height="31">
<path d="M105.49 127.66H85.49V157.66H105.49V127.66Z" fill="white"/>
</mask>
<g mask="url(#mask27_932_645)">
<path d="M95.49 148.83C98.8976 148.83 101.66 146.068 101.66 142.66C101.66 139.252 98.8976 136.49 95.49 136.49C92.0824 136.49 89.32 139.252 89.32 142.66C89.32 146.068 92.0824 148.83 95.49 148.83Z" fill="#FFE187"/>
<path d="M105.49 133.83C108.898 133.83 111.66 131.068 111.66 127.66C111.66 124.252 108.898 121.49 105.49 121.49C102.082 121.49 99.32 124.252 99.32 127.66C99.32 131.068 102.082 133.83 105.49 133.83Z" fill="#FFE187"/>
<path d="M85.49 133.83C88.8976 133.83 91.66 131.068 91.66 127.66C91.66 124.252 88.8976 121.49 85.49 121.49C82.0824 121.49 79.32 124.252 79.32 127.66C79.32 131.068 82.0824 133.83 85.49 133.83Z" fill="#FFE187"/>
</g>
<mask id="mask28_932_645" style="mask-type:luminance" maskUnits="userSpaceOnUse" x="65" y="67" width="21" height="31">
<path d="M85.49 67.66H65.49V97.66H85.49V67.66Z" fill="white"/>
</mask>
<g mask="url(#mask28_932_645)">
<path d="M85.49 103.83C88.8976 103.83 91.66 101.068 91.66 97.66C91.66 94.2524 88.8976 91.49 85.49 91.49C82.0824 91.49 79.32 94.2524 79.32 97.66C79.32 101.068 82.0824 103.83 85.49 103.83Z" fill="#FFE187"/>
<path d="M65.49 103.83C68.8976 103.83 71.66 101.068 71.66 97.66C71.66 94.2524 68.8976 91.49 65.49 91.49C62.0824 91.49 59.32 94.2524 59.32 97.66C59.32 101.068 62.0824 103.83 65.49 103.83Z" fill="#FFE187"/>
</g>
<mask id="mask29_932_645" style="mask-type:luminance" maskUnits="userSpaceOnUse" x="65" y="97" width="21" height="31">
<path d="M85.49 97.66H65.49V127.66H85.49V97.66Z" fill="white"/>
</mask>
<g mask="url(#mask29_932_645)">
<path d="M85.49 133.83C88.8976 133.83 91.66 131.068 91.66 127.66C91.66 124.252 88.8976 121.49 85.49 121.49C82.0824 121.49 79.32 124.252 79.32 127.66C79.32 131.068 82.0824 133.83 85.49 133.83Z" fill="#FFE187"/>
<path d="M65.49 133.83C68.8976 133.83 71.66 131.068 71.66 127.66C71.66 124.252 68.8976 121.49 65.49 121.49C62.0824 121.49 59.32 124.252 59.32 127.66C59.32 131.068 62.0824 133.83 65.49 133.83Z" fill="#FFE187"/>
<path d="M75.49 118.83C78.8976 118.83 81.66 116.068 81.66 112.66C81.66 109.252 78.8976 106.49 75.49 106.49C72.0824 106.49 69.32 109.252 69.32 112.66C69.32 116.068 72.0824 118.83 75.49 118.83Z" fill="#FFE187"/>
<path d="M85.49 103.83C88.8976 103.83 91.66 101.068 91.66 97.66C91.66 94.2524 88.8976 91.49 85.49 91.49C82.0824 91.49 79.32 94.2524 79.32 97.66C79.32 101.068 82.0824 103.83 85.49 103.83Z" fill="#FFE187"/>
<path d="M65.49 103.83C68.8976 103.83 71.66 101.068 71.66 97.66C71.66 94.2524 68.8976 91.49 65.49 91.49C62.0824 91.49 59.32 94.2524 59.32 97.66C59.32 101.068 62.0824 103.83 65.49 103.83Z" fill="#FFE187"/>
</g>
<mask id="mask30_932_645" style="mask-type:luminance" maskUnits="userSpaceOnUse" x="65" y="127" width="21" height="31">
<path d="M85.49 127.66H65.49V157.66H85.49V127.66Z" fill="white"/>
</mask>
<g mask="url(#mask30_932_645)">
<path d="M75.49 148.83C78.8976 148.83 81.66 146.068 81.66 142.66C81.66 139.252 78.8976 136.49 75.49 136.49C72.0824 136.49 69.32 139.252 69.32 142.66C69.32 146.068 72.0824 148.83 75.49 148.83Z" fill="#FFE187"/>
<path d="M85.49 133.83C88.8976 133.83 91.66 131.068 91.66 127.66C91.66 124.252 88.8976 121.49 85.49 121.49C82.0824 121.49 79.32 124.252 79.32 127.66C79.32 131.068 82.0824 133.83 85.49 133.83Z" fill="#FFE187"/>
<path d="M65.49 133.83C68.8976 133.83 71.66 131.068 71.66 127.66C71.66 124.252 68.8976 121.49 65.49 121.49C62.0824 121.49 59.32 124.252 59.32 127.66C59.32 131.068 62.0824 133.83 65.49 133.83Z" fill="#FFE187"/>
</g>
<mask id="mask31_932_645" style="mask-type:luminance" maskUnits="userSpaceOnUse" x="45" y="67" width="21" height="31">
<path d="M65.49 67.66H45.49V97.66H65.49V67.66Z" fill="white"/>
</mask>
<g mask="url(#mask31_932_645)">
<path d="M65.49 103.83C68.8976 103.83 71.66 101.068 71.66 97.66C71.66 94.2524 68.8976 91.49 65.49 91.49C62.0824 91.49 59.32 94.2524 59.32 97.66C59.32 101.068 62.0824 103.83 65.49 103.83Z" fill="#FFE187"/>
<path d="M45.49 103.83C48.8976 103.83 51.66 101.068 51.66 97.66C51.66 94.2524 48.8976 91.49 45.49 91.49C42.0824 91.49 39.32 94.2524 39.32 97.66C39.32 101.068 42.0824 103.83 45.49 103.83Z" fill="#FFE187"/>
</g>
<mask id="mask32_932_645" style="mask-type:luminance" maskUnits="userSpaceOnUse" x="45" y="97" width="21" height="31">
<path d="M65.49 97.66H45.49V127.66H65.49V97.66Z" fill="white"/>
</mask>
<g mask="url(#mask32_932_645)">
<path d="M65.49 133.83C68.8976 133.83 71.66 131.068 71.66 127.66C71.66 124.252 68.8976 121.49 65.49 121.49C62.0824 121.49 59.32 124.252 59.32 127.66C59.32 131.068 62.0824 133.83 65.49 133.83Z" fill="#FFE187"/>
<path d="M45.49 133.83C48.8976 133.83 51.66 131.068 51.66 127.66C51.66 124.252 48.8976 121.49 45.49 121.49C42.0824 121.49 39.32 124.252 39.32 127.66C39.32 131.068 42.0824 133.83 45.49 133.83Z" fill="#FFE187"/>
<path d="M55.49 118.83C58.8976 118.83 61.66 116.068 61.66 112.66C61.66 109.252 58.8976 106.49 55.49 106.49C52.0824 106.49 49.32 109.252 49.32 112.66C49.32 116.068 52.0824 118.83 55.49 118.83Z" fill="#FFE187"/>
<path d="M65.49 103.83C68.8976 103.83 71.66 101.068 71.66 97.66C71.66 94.2524 68.8976 91.49 65.49 91.49C62.0824 91.49 59.32 94.2524 59.32 97.66C59.32 101.068 62.0824 103.83 65.49 103.83Z" fill="#FFE187"/>
<path d="M45.49 103.83C48.8976 103.83 51.66 101.068 51.66 97.66C51.66 94.2524 48.8976 91.49 45.49 91.49C42.0824 91.49 39.32 94.2524 39.32 97.66C39.32 101.068 42.0824 103.83 45.49 103.83Z" fill="#FFE187"/>
</g>
<mask id="mask33_932_645" style="mask-type:luminance" maskUnits="userSpaceOnUse" x="45" y="127" width="21" height="31">
<path d="M65.49 127.66H45.49V157.66H65.49V127.66Z" fill="white"/>
</mask>
<g mask="url(#mask33_932_645)">
<path d="M55.49 148.83C58.8976 148.83 61.66 146.068 61.66 142.66C61.66 139.252 58.8976 136.49 55.49 136.49C52.0824 136.49 49.32 139.252 49.32 142.66C49.32 146.068 52.0824 148.83 55.49 148.83Z" fill="#FFE187"/>
<path d="M65.49 133.83C68.8976 133.83 71.66 131.068 71.66 127.66C71.66 124.252 68.8976 121.49 65.49 121.49C62.0824 121.49 59.32 124.252 59.32 127.66C59.32 131.068 62.0824 133.83 65.49 133.83Z" fill="#FFE187"/>
<path d="M45.49 133.83C48.8976 133.83 51.66 131.068 51.66 127.66C51.66 124.252 48.8976 121.49 45.49 121.49C42.0824 121.49 39.32 124.252 39.32 127.66C39.32 131.068 42.0824 133.83 45.49 133.83Z" fill="#FFE187"/>
</g>
</g>
<path d="M87.24 64.64V148.83H112.75V64.64H87.24ZM111.75 147.83H88.24V65.64H111.75V147.83Z" fill="#5C8EF2"/>
<path d="M143.99 63.14H119.99C120.14 63.03 120.3 62.92 120.45 62.8C123.61 60.38 125.43 57.12 125.59 53.63C125.73 50.5 124.53 47.52 122.3 45.45C117.98 41.47 110.28 42.18 105.13 47.04C104.84 47.31 104.56 47.6 104.3 47.89C103.19 46.81 101.67 46.14 100 46.14C98.33 46.14 96.81 46.8 95.7 47.89C95.44 47.6 95.16 47.31 94.87 47.04C89.72 42.18 82.02 41.47 77.7 45.45C75.46 47.52 74.26 50.5 74.4 53.63C74.56 57.12 76.39 60.38 79.54 62.8C79.69 62.92 79.85 63.03 80 63.14H56.01C48.86 63.14 43.04 68.95 43.04 76.1V90.16C43.04 93.82 45.98 96.81 49.62 96.89V138.65C49.62 145.09 54.86 150.33 61.3 150.33H138.7C145.14 150.33 150.38 145.09 150.38 138.65V96.89C154.02 96.81 156.95 93.82 156.95 90.16V76.1C156.95 68.95 151.13 63.14 143.99 63.14ZM97.82 52.31C97.82 51.99 97.89 51.69 98.02 51.42C98.36 50.66 99.12 50.14 100 50.14C100.88 50.14 101.64 50.67 101.98 51.43C102.1 51.7 102.17 51.99 102.17 52.31V63.03H97.82V52.31ZM89.74 96.9V67.14H110.25V146.33H89.74V96.9ZM107.87 49.95C110.01 47.93 112.77 46.86 115.24 46.86C116.92 46.86 118.47 47.36 119.58 48.39C120.93 49.64 121.68 51.53 121.6 53.45C121.52 55.07 120.84 57.46 118.02 59.63C113.93 62.76 109.69 62.98 106.17 63V52.31C106.17 52.24 106.17 52.16 106.16 52.09C106.62 51.32 107.19 50.6 107.87 49.95ZM78.4 53.45C78.31 51.53 79.06 49.64 80.41 48.39C81.53 47.36 83.07 46.86 84.75 46.86C85.99 46.86 87.29 47.13 88.56 47.65C89.83 48.17 91.05 48.94 92.12 49.95C92.81 50.6 93.37 51.32 93.83 52.09C93.82 52.16 93.82 52.24 93.82 52.31V63C90.31 62.97 86.07 62.76 81.98 59.63C79.15 57.46 78.47 55.07 78.4 53.45ZM47.04 90.16V76.1C47.04 71.16 51.07 67.14 56.01 67.14H85.74V92.9H49.79C48.27 92.9 47.04 91.67 47.04 90.16ZM53.62 138.65V96.9H85.74V146.33H61.3C57.06 146.33 53.62 142.89 53.62 138.65ZM146.38 138.65C146.38 142.89 142.93 146.33 138.7 146.33H114.25V96.9H146.38V138.65ZM152.95 90.16C152.95 91.67 151.72 92.9 150.21 92.9H114.25V67.14H143.99C148.93 67.14 152.95 71.16 152.95 76.1V90.16Z" fill="#5C8EF2"/>
</svg>
