<svg width="200" height="200" viewBox="0 0 200 200" fill="none" xmlns="http://www.w3.org/2000/svg">
<path d="M148.05 149.83H52.7C45.96 149.83 40.48 144.35 40.48 137.61V70.5301C40.48 63.7901 45.96 58.3101 52.7 58.3101H148.04C154.78 58.3101 160.26 63.7901 160.26 70.5301V137.6C160.26 144.34 154.78 149.82 148.04 149.82L148.05 149.83ZM52.7 62.3101C48.17 62.3101 44.48 66.0001 44.48 70.5301V137.6C44.48 142.13 48.17 145.82 52.7 145.82H148.04C152.57 145.82 156.26 142.13 156.26 137.6V70.5301C156.26 66.0001 152.57 62.3101 148.04 62.3101H52.7Z" fill="#5C8EF2"/>
<path d="M143.03 138.91H57.72C54.3 138.91 51.52 136.13 51.52 132.71V75.44C51.52 72.02 54.3 69.24 57.72 69.24H143.02C146.44 69.24 149.22 72.02 149.22 75.44V132.71C149.22 136.13 146.44 138.91 143.02 138.91H143.03ZM57.72 73.23C56.51 73.23 55.52 74.22 55.52 75.43V132.7C55.52 133.91 56.51 134.9 57.72 134.9H143.02C144.23 134.9 145.22 133.91 145.22 132.7V75.43C145.22 74.22 144.23 73.23 143.02 73.23H57.72Z" fill="#FFE187"/>
<path d="M96.67 114.36H68.85C67.75 114.36 66.85 113.46 66.85 112.36C66.85 111.26 67.75 110.36 68.85 110.36H96.67C97.77 110.36 98.67 111.26 98.67 112.36C98.67 113.46 97.77 114.36 96.67 114.36Z" fill="#5C8EF2"/>
<path d="M96.67 124.87H68.85C67.75 124.87 66.85 123.97 66.85 122.87C66.85 121.77 67.75 120.87 68.85 120.87H96.67C97.77 120.87 98.67 121.77 98.67 122.87C98.67 123.97 97.77 124.87 96.67 124.87Z" fill="#5C8EF2"/>
<path d="M165.87 109.65L153.7 102.5L141.83 109.65L142.76 86.89L142.85 84.63L142.95 82.28C143.57 82.72 144.22 83.13 144.9 83.5C147.56 84.94 150.61 85.76 153.85 85.76C157.09 85.76 160.14 84.94 162.8 83.5C163.48 83.13 164.13 82.72 164.75 82.28L164.85 84.63L164.94 86.89L165.87 109.65Z" fill="#FFE187"/>
<path d="M153.85 46.04C142.33 46.04 132.99 55.38 132.99 66.9C132.99 73.53 136.08 79.44 140.91 83.25C141.52 83.75 142.17 84.21 142.85 84.63C143.48 85.02 144.14 85.38 144.81 85.7C147.55 87.02 150.61 87.76 153.85 87.76C157.09 87.76 160.15 87.02 162.89 85.7C163.56 85.38 164.22 85.02 164.85 84.63C165.53 84.21 166.18 83.75 166.79 83.25C171.62 79.44 174.71 73.53 174.71 66.9C174.71 55.38 165.37 46.04 153.85 46.04ZM166.69 80.7C166.08 81.27 165.43 81.8 164.75 82.28C164.13 82.72 163.48 83.13 162.8 83.5C160.14 84.94 157.09 85.76 153.85 85.76C150.61 85.76 147.56 84.94 144.9 83.5C144.22 83.13 143.57 82.72 142.95 82.28C142.27 81.8 141.62 81.27 141.01 80.7C137.31 77.26 134.99 72.34 134.99 66.9C134.99 56.5 143.45 48.04 153.85 48.04C164.25 48.04 172.71 56.5 172.71 66.9C172.71 72.34 170.39 77.26 166.69 80.7Z" fill="#FFE187"/>
<path d="M172.71 66.9C172.71 72.34 170.39 77.26 166.69 80.7C166.08 81.27 165.43 81.8 164.75 82.28C164.13 82.72 163.48 83.13 162.8 83.5C160.14 84.94 157.09 85.76 153.85 85.76C150.61 85.76 147.56 84.94 144.9 83.5C144.22 83.13 143.57 82.72 142.95 82.28C142.27 81.8 141.62 81.27 141.01 80.7C137.31 77.26 134.99 72.34 134.99 66.9C134.99 56.5 143.45 48.04 153.85 48.04C164.25 48.04 172.71 56.5 172.71 66.9Z" fill="#FFE187"/>
<path d="M176.71 66.9C176.71 54.29 166.45 44.04 153.85 44.04C141.25 44.04 130.99 54.29 130.99 66.9C130.99 74.66 134.88 81.53 140.81 85.66L139.83 109.57C139.8 110.3 140.18 110.99 140.81 111.37C141.45 111.74 142.23 111.74 142.86 111.36L153.71 104.83L164.85 111.37C165.17 111.56 165.52 111.65 165.87 111.65C166.22 111.65 166.58 111.55 166.89 111.36C167.52 110.99 167.89 110.3 167.86 109.57L166.89 85.66C172.82 81.53 176.71 74.66 176.71 66.9ZM154.72 100.78C154.4 100.59 154.05 100.5 153.7 100.5C153.35 100.5 152.99 100.6 152.67 100.79L143.98 106.02L144.72 87.85C147.52 89.08 150.61 89.76 153.85 89.76C157.09 89.76 160.18 89.08 162.98 87.85L163.72 106.07L154.72 100.78ZM166.69 80.7C166.08 81.27 165.43 81.8 164.75 82.28C164.13 82.72 163.48 83.13 162.8 83.5C160.14 84.94 157.09 85.76 153.85 85.76C150.61 85.76 147.56 84.94 144.9 83.5C144.22 83.13 143.57 82.72 142.95 82.28C142.27 81.8 141.62 81.27 141.01 80.7C137.31 77.26 134.99 72.34 134.99 66.9C134.99 56.5 143.45 48.04 153.85 48.04C164.25 48.04 172.71 56.5 172.71 66.9C172.71 72.34 170.39 77.26 166.69 80.7Z" fill="#5C8EF2"/>
<path d="M148.97 65.56C150.51 65.56 151.76 64.31 151.76 62.77C151.76 61.23 150.51 59.98 148.97 59.98C147.43 59.98 146.18 61.23 146.18 62.77C146.18 64.31 147.43 65.56 148.97 65.56Z" fill="#5C8EF2"/>
<path d="M158.74 65.56C160.28 65.56 161.53 64.31 161.53 62.77C161.53 61.23 160.28 59.98 158.74 59.98C157.2 59.98 155.95 61.23 155.95 62.77C155.95 64.31 157.2 65.56 158.74 65.56Z" fill="#5C8EF2"/>
<path d="M160.92 69.1001C159.91 68.6501 158.74 69.0801 158.3 70.0901C158.26 70.1601 157.34 71.8101 153.88 71.8101C150.42 71.8101 149.48 70.2101 149.4 70.0701C148.92 69.1001 147.75 68.6901 146.77 69.1501C145.77 69.6101 145.33 70.8001 145.8 71.8101C146.49 73.3001 148.97 75.8201 153.89 75.8201C158.81 75.8201 161.27 73.2801 161.93 71.7801C162.38 70.7701 161.93 69.5601 160.93 69.1101L160.92 69.1001Z" fill="#5C8EF2"/>
</svg>
